<svg xmlns="http://www.w3.org/2000/svg" xmlns:xlink="http://www.w3.org/1999/xlink" viewBox="0 0 64 64" aria-label="newmenu_lpcreator" role="img"><path d="m63,3l-62,0c-0.6,0 -1,0.4 -1,1l0,56c0,0.6 0.4,1 1,1l62,0c0.6,0 1,-0.4 1,-1l0,-56c0,-0.6 -0.4,-1 -1,-1zm-49,8l-12,0l0,-6l12,0m48,54l-60,0l0,-46l60,0l0,46zm-48,-54l48,0l0,6l-48,0"></path><rect height="2" width="2" y="7" x="11"></rect><rect height="2" width="2" y="7" x="7"></rect><rect height="2" width="2" y="7" x="3"></rect><path d="m48,43l4,0l0,-2l1,0c0.6,0 1,-0.4 1,-1l0,-5l-2,0l0,0.8l-12,-2.6l0,-0.2c0,-2.2 -1.8,-4 -4,-4l-0.4,0l-1.7,-3.5c-0.2,-0.3 -0.5,-0.6 -0.9,-0.5l-2,0c-0.4,0 -0.7,0.2 -0.9,0.5l-1.7,3.5l-0.4,0c-2.2,0 -4,1.8 -4,4l0,0.2l-12,2.6l0,-0.8l-2,0l0,5c0,0.6 0.4,1 1,1l1,0l0,2l4,0l0,-2l2,0l0,2l4,0l0,-2l3.6,0l1.7,1.7c0.2,0.2 0.4,0.3 0.7,0.3l8,0c0.3,0 0.5,-0.1 0.7,-0.3l1.7,-1.7l3.6,0l0,2l4,0l0,-2l2,0l0,2zm-24,-4l-12,0l0,-1.2l12,-2.6l0,3.8zm7.6,-12l0.8,0l1,2l-2.8,0l1,-2zm6.4,11.6l-2.4,2.4l-7.2,0l-2.4,-2.4l0,-5.6c0,-1.1 0.9,-2 2,-2l8,0c1.1,0 2,0.9 2,2l0,5.6zm2,0.4l0,-3.8l12,2.6l0,1.2l-12,0z"></path><path d="m34,33l-4,0c-1.1,0 -2,0.9 -2,2l8,0c0,-1.1 -0.9,-2 -2,-2z"></path><rect height="2" width="2" y="26" x="9"></rect></svg>