<svg xmlns="http://www.w3.org/2000/svg" xmlns:xlink="http://www.w3.org/1999/xlink" viewBox="0 0 816 287" aria-label="logo" role="img"><g transform="matrix(1.60418 0 0 -1.60418 -81.6065 316.148)">
        <path d="M333.765 161.56l-6.65-26.893-7.787 26.893h-6.23l-7.787-26.893-6.6 26.893h-8.685l11.38-42.648h6.95l7.845 25.876 7.847-25.876h6.948l11.44 42.648h-8.685zm45.1-7.43v7.43h-28.093V118.9h28.093v7.428h-19.768V136.7h16.832v7.428h-16.832v10h19.768z"></path><path d="M407.018 126.338h-8.686v10.482h8.686c3.772 0 5.57-2.336 5.57-5.2s-1.798-5.273-5.57-5.273m-8.686 27.792h8.147c3.533 0 5.5-1.975 5.5-4.9s-1.977-4.912-5.5-4.912h-8.147v9.822zm22.582-22.94c0 5.7-3.294 8.387-5.87 9.586 2.158 1.018 5.273 4.072 5.273 8.804 0 7.3-4.852 11.98-13.178 11.98h-17.133V118.9h17.85c7.608 0 13.058 4.313 13.058 12.28m35.756 9.355c-1.797 1.676-4.252 2.756-8.146 3.295l-5.032.717c-1.736.24-3.114.9-3.954 1.678-.896.838-1.257 1.977-1.257 3.054 0 2.935 2.157 5.392 6.6 5.392 2.816 0 6.05-.36 8.744-2.935l5.272 5.2c-3.654 3.535-7.906 4.972-13.777 4.972-9.223 0-14.854-5.332-14.854-12.938 0-3.594 1.018-6.35 3.055-8.387 1.915-1.856 4.612-2.995 8.264-3.534l5.154-.718c1.976-.3 2.934-.72 3.772-1.498.898-.838 1.317-2.096 1.317-3.594 0-3.414-2.634-5.27-7.546-5.27-3.954 0-7.607.896-10.302 3.594l-5.4-5.393c4.192-4.252 9.104-5.63 15.572-5.63 8.925 0 15.813 4.67 15.813 12.937 0 3.774-1.018 6.9-3.294 9.045m22.45 21.028h-8.326V118.9h8.326v42.648zm20.905-42.66h8.325v35.22h11.14v7.428h-30.608v-7.428h11.142V118.9zm29.23 0h28.093v7.428H537.6V136.7h16.83v7.427H537.6v10.002h19.767v7.428h-28.093V118.9zm-218.5-44.277h-7.786v11.68h7.786c3.773 0 6.17-2.397 6.17-5.87s-2.397-5.8-6.17-5.8m.42 19.107H294.65V51.082h8.327v16.055h8.206c8.805 0 14.076 6.05 14.076 13.297s-5.27 13.296-14.076 13.296m30.897 0h-8.326V51.082h27.675v7.43h-19.35v35.22zm97.647-26.115l-16.9 26.115h-7.428V51.082h8.328v26.176l16.9-26.176h7.428V93.73h-8.327V67.615z"></path><path d="M458.733 51.082h28.1v7.43h-19.767v10.36H483.9V76.3h-16.833v10.002h19.767v7.427h-28.1V51.082zm38.313 35.22H508.2V51.08h8.324V86.3h11.14v7.428h-30.608V86.3zM385.042 93.73l-15.515-42.648h8.686L388.335 78.8l10.123-27.728h8.686L391.57 93.73h-6.528zM193.828 72.425L183.73 95.273l17.66 7.804 5.346 2.465c5.152-12.652-.54-27.28-12.9-33.117m72.45 86.152c-3.396 7.684-15.7 8.96-38.727 4.006a4.61 4.61 0 0 1-1.226-.348c-2.367-1.045-3.44-3.813-2.393-6.18a4.69 4.69 0 0 1 5.536-2.619c10.643 2.292 17.386 2.834 21.605 2.714h.01c1.8-.052 3.14-.224 4.126-.43 1.635-.34 2.348-2.06 1.342-3.68s-2.888-3.996-6.4-7.265c-5.996-5.578-15.122-12.2-26.4-19.176-9.216-5.695-17.77-10.267-26.148-13.97l-17.66-7.806-6.552 14.825-.154-.066a4.51 4.51 0 0 1-5.942 2.3c-2.276-1.004-3.307-3.666-2.3-5.942l-.154-.068 20.436-46.237-20.222-8.937c-13.007-5.75-28.353.2-34.102 13.197l-3.083 6.976c-5.75 13.008.2 28.352 13.198 34.102l28.184 12.455c10.548 4.662 22.635 1.637 29.893-6.6 6.737 3.2 13.657 7.008 21.033 11.566l5.9 3.742-.368.862c-15.73 35.593-57.338 51.695-92.932 35.965C102.8 158.695 86.648 127.076 91.7 96.16c-9.67-6.046-17.763-11.83-23.824-17.052C60.85 73.04 51.91 64.058 55.442 56.06c3.44-7.778 16.016-8.994 39.564-3.826a4.61 4.61 0 0 1 1.2.343 4.69 4.69 0 0 1 2.393 6.182c-.956 2.162-3.348 3.236-5.558 2.6-15.16-3.33-22.62-3.176-26.148-2.53-1.945.355-2.602 2.414-1.74 3.764C67.738 66.66 75.32 74.634 94 86.56a71.41 71.41 0 0 1 2.831-7.543c15.73-35.594 57.34-51.696 92.933-35.965 30.032 13.273 46.187 44.967 41.055 75.926 11.486 7.23 20.72 14.1 26.796 19.984 3.007 2.902 12.154 11.742 8.674 19.615"></path></g></svg>