<svg xmlns="http://www.w3.org/2000/svg" xmlns:xlink="http://www.w3.org/1999/xlink" viewBox="-388 266.3 64 56.6" aria-label="newmenu_projectmanagement" role="img"><style type="text/css">
			.st_pm{fill:none;stroke:currentColor;stroke-width:2;stroke-linejoin:round;}
		</style><g id="_6-Planning1"><path class="st_pm" d="M-385,267.3h58c1.1,0,2,0.8,2,1.8v51.1c0,1-0.9,1.8-2,1.8h-58c-1.1,0-2-0.8-2-1.8V269   C-387,268.1-386.1,267.3-385,267.3z"></path><line class="st_pm" x1="-387" y1="275.3" x2="-325" y2="275.3"></line><line class="st_pm" x1="-384" y1="271.3" x2="-382" y2="271.3"></line><line class="st_pm" x1="-380" y1="271.3" x2="-378" y2="271.3"></line><line class="st_pm" x1="-376" y1="271.3" x2="-374" y2="271.3"></line><path class="st_pm" d="M-364,283.3h16c0.6,0,1,0.4,1,1v8c0,0.6-0.4,1-1,1h-16c-0.6,0-1-0.4-1-1v-8C-365,283.7-364.6,283.3-364,283.3z   "></path><path class="st_pm" d="M-360,304.3h8c0.6,0,1,0.4,1,1v8c0,0.6-0.4,1-1,1h-8c-0.6,0-1-0.4-1-1v-8C-361,304.7-360.6,304.3-360,304.3z"></path><path class="st_pm" d="M-344,304.3h8c0.6,0,1,0.4,1,1v8c0,0.6-0.4,1-1,1h-8c-0.6,0-1-0.4-1-1v-8C-345,304.7-344.6,304.3-344,304.3z"></path><path class="st_pm" d="M-376,304.3h8c0.6,0,1,0.4,1,1v8c0,0.6-0.4,1-1,1h-8c-0.6,0-1-0.4-1-1v-8C-377,304.7-376.6,304.3-376,304.3z"></path><polyline class="st_pm" points="-372,304.3 -372,297.3 -340,297.3 -340,304.3  "></polyline><line class="st_pm" x1="-356" y1="293.3" x2="-356" y2="304.3"></line></g></svg>