<svg xmlns="http://www.w3.org/2000/svg" xmlns:xlink="http://www.w3.org/1999/xlink" viewBox="0 0 60 60" aria-label="newmenu_socialmedia" role="img"><path d="m38,32l-5,0l0,-3c0,-1.7 -1.3,-3 -3,-3l-2,0c-0.6,0 -1,0.4 -1,1l0,5.6l-2.4,2.4l-6.6,0c-0.6,0 -1,0.4 -1,1l0,9c0,0.6 0.4,1 1,1l7,0l13,0c2.8,0 5,-2.2 5,-5l0,-4c0,-2.8 -2.2,-5 -5,-5zm-19,5l5,0l0,7l-5,0l0,-7zm22,4c0,1.7 -1.3,3 -3,3l-12,0l0,-7.6l2.7,-2.7c0.2,-0.2 0.3,-0.4 0.3,-0.7l0,-5l1,0c0.6,0 1,0.4 1,1l0,4c0,0.6 0.4,1 1,1l6,0c1.7,0 3,1.3 3,3l0,4z"></path><path d="m37,0c-2.8,0 -5,2.2 -5,5l0,10c0,0.3 0,0.7 0.1,1l-4.2,0c0.1,-0.3 0.1,-0.7 0.1,-1l0,-10c0,-2.8 -2.2,-5 -5,-5m-18,0c-2.8,0 -5,2.2 -5,5l0,10c0,2.8 2.2,5 5,5l0,32l-4,0c-0.6,0 -1,0.4 -1,1c0,3.9 3.1,7 7,7l46,0c3.9,0 7,-3.1 7,-7c0,-0.6 -0.4,-1 -1,-1l-4,0l0,-32c2.8,0 5,-2.2 5,-5l0,-10c0,-2.8 -2.2,-5 -5,-5m-28,18l6,0c0.1,0.1 0.1,0.1 0.2,0.2c0.2,0.2 0.3,0.3 0.5,0.5c0.1,0.1 0.2,0.2 0.3,0.2c0.1,0.1 0.3,0.2 0.4,0.3c0.2,0.1 0.3,0.2 0.5,0.3c0.1,0 0.2,0.1 0.3,0.1c0.2,0.1 0.5,0.2 0.7,0.2c0.1,0 0.1,0 0.2,0c0.3,0.1 0.6,0.1 0.9,0.1l4,0l0,2l-22,0l0,-2l4,0c0.3,0 0.6,0 0.9,-0.1c0.1,0 0.1,0 0.2,0c0.2,-0.1 0.5,-0.1 0.7,-0.2c0.1,0 0.2,-0.1 0.3,-0.1c0.2,-0.1 0.3,-0.2 0.5,-0.3c0.1,-0.1 0.3,-0.2 0.4,-0.3c0.1,-0.1 0.2,-0.2 0.3,-0.2c0.2,-0.2 0.3,-0.3 0.5,-0.5c0.1,-0.1 0.1,-0.1 0.2,-0.2zm14,6l0,3c0,0.4 0.2,0.8 0.6,0.9c0.1,0 0.2,0.1 0.3,0.1c0,0 0,0 0,0c0,0 0,0 0.1,0c0.1,0 0.2,0 0.3,-0.1c0,0 0.1,0 0.1,0c0.1,0 0.2,-0.1 0.3,-0.2l3.7,-3.7l2.6,0l0,24l-38,0l0,-24l2.6,0l3.7,3.7c0.1,0.1 0.2,0.1 0.3,0.2c0,0 0.1,0 0.1,0c0.1,0 0.2,0 0.3,0c0,0 0,0 0.1,0c0,0 0,0 0,0c0.1,0 0.2,0 0.3,-0.1c0.4,-0.2 0.6,-0.5 0.6,-0.9l0,-3m-17,-8.9l0,-10c0,-1.7 1.3,-3 3,-3l18,0c1.7,0 3,1.3 3,3l0,10c0,0.5 -0.2,1 -0.4,1.5c0,0 0,0 0,0c-0.3,0.5 -0.6,0.8 -1,1.1c0,0 -0.1,0.1 -0.1,0.1c-0.2,0.1 -0.3,0.2 -0.5,0.2c-0.1,0 -0.1,0 -0.2,0.1c-0.2,0.1 -0.5,0.1 -0.7,0.1l-5,0c-0.6,0 -1,0.4 -1,1l0,4l0,1.6l-2.3,-2.3l-4,-4c-0.2,-0.2 -0.4,-0.3 -0.7,-0.3l-4,0l-1,0c-1.8,-0.1 -3.1,-1.4 -3.1,-3.1zm51,43l-46,0c-2.4,0 -4.4,-1.7 -4.9,-4l3.9,0l48,0l3.9,0c-0.5,2.3 -2.5,4 -4.9,4zm0,-15.7l0,9.7l-46,0l0,-32l2.6,0l2,2l-1.6,0c-0.6,0 -1,0.4 -1,1l0,26c0,0.6 0.4,1 1,1l40,0c0.6,0 1,-0.4 1,-1l0,-26c0,-0.6 -0.4,-1 -1,-1l-1.6,0l2,-2l2.6,0l0,22.3m5,-27.3c0,1.7 -1.3,3 -3,3l-1,0l-4,0c-0.3,0 -0.5,0.1 -0.7,0.3l-4,4l-2.3,2.3l0,-1.6l0,-4c0,-0.6 -0.4,-1 -1,-1l-5,0c-0.2,0 -0.5,0 -0.7,-0.1c-0.1,0 -0.1,0 -0.2,-0.1c-0.2,-0.1 -0.3,-0.1 -0.5,-0.2c0,0 -0.1,0 -0.1,-0.1c-0.4,-0.3 -0.8,-0.6 -1,-1.1c0,0 0,0 0,0c-0.3,-0.4 -0.4,-0.9 -0.4,-1.5l0,-10c0,-1.7 1.3,-3 3,-3l18,0c1.7,0 3,1.3 3,3l0,10.1l-0.1,0z"></path><rect height="2" width="2" y="9" x="41"></rect><rect height="2" width="2" y="9" x="45"></rect><rect height="2" width="2" y="9" x="49"></rect><path d="m13.3,15.7c0.2,0.2 0.5,0.3 0.7,0.3s0.5,-0.1 0.7,-0.3l4.5,-4.5c0.6,-0.6 0.9,-1.4 0.9,-2.2c0,-0.8 -0.3,-1.6 -0.9,-2.2c-1.2,-1.2 -3.2,-1.2 -4.4,0l-0.8,0.8l-0.8,-0.8c-1.2,-1.2 -3.2,-1.2 -4.4,0c-0.6,0.6 -0.9,1.4 -0.9,2.2s0.3,1.6 0.9,2.2l4.5,4.5zm-3.1,-7.5c0.2,-0.2 0.5,-0.3 0.8,-0.3s0.6,0.1 0.8,0.3l1.5,1.5c0.4,0.4 1,0.4 1.4,0l1.5,-1.5c0.4,-0.4 1.1,-0.4 1.6,0c0.2,0.2 0.3,0.5 0.3,0.8s-0.1,0.6 -0.3,0.8l-3.8,3.8l-3.8,-3.8c-0.2,-0.2 -0.3,-0.5 -0.3,-0.8s0.1,-0.6 0.3,-0.8z"></path></svg>